<svg width="1600" height="1000" viewBox="0 0 1600 1000" fill="none" xmlns="http://www.w3.org/2000/svg">
  <defs>
    <linearGradient id="g1" x1="0" y1="0" x2="1" y2="1">
      <stop offset="0" stop-color="#22D3EE" stop-opacity="0.75"/>
      <stop offset="0.5" stop-color="#A855F7" stop-opacity="0.55"/>
      <stop offset="1" stop-color="#0B1025" stop-opacity="1"/>
    </linearGradient>
    <radialGradient id="g2" cx="50%" cy="30%" r="70%">
      <stop offset="0" stop-color="#58C4FF" stop-opacity="0.55"/>
      <stop offset="1" stop-color="#05060A" stop-opacity="0"/>
    </radialGradient>
    <filter id="b" x="-20%" y="-20%" width="140%" height="140%">
      <feGaussianBlur stdDeviation="28"/>
    </filter>
  </defs>
  <rect width="1600" height="1000" fill="#05060A"/>
  <rect width="1600" height="1000" fill="url(#g2)"/>
  <g filter="url(#b)">
    <path d="M220 720C440 540 660 860 860 640C1060 420 1220 560 1380 380" stroke="url(#g1)" stroke-width="42" stroke-linecap="round"/>
  </g>
  <g opacity="0.9">
    <rect x="210" y="240" width="1180" height="640" rx="48" fill="white" fill-opacity="0.05" stroke="white" stroke-opacity="0.10"/>
    <rect x="260" y="300" width="1080" height="520" rx="36" fill="url(#g1)" fill-opacity="0.12" stroke="white" stroke-opacity="0.10"/>
    <rect x="310" y="360" width="520" height="18" rx="9" fill="#58C4FF" fill-opacity="0.55"/>
    <rect x="310" y="402" width="380" height="14" rx="7" fill="white" fill-opacity="0.18"/>
    <rect x="310" y="460" width="460" height="220" rx="24" fill="white" fill-opacity="0.06" stroke="white" stroke-opacity="0.10"/>
    <rect x="800" y="460" width="540" height="140" rx="24" fill="white" fill-opacity="0.06" stroke="white" stroke-opacity="0.10"/>
    <rect x="800" y="620" width="540" height="60" rx="24" fill="white" fill-opacity="0.06" stroke="white" stroke-opacity="0.10"/>
  </g>
</svg>

