<svg width="1600" height="1000" viewBox="0 0 1600 1000" fill="none" xmlns="http://www.w3.org/2000/svg">
  <defs>
    <linearGradient id="h1" x1="0" y1="0" x2="1" y2="1">
      <stop offset="0" stop-color="#A855F7" stop-opacity="0.75"/>
      <stop offset="0.45" stop-color="#22D3EE" stop-opacity="0.55"/>
      <stop offset="1" stop-color="#0B1025" stop-opacity="1"/>
    </linearGradient>
    <radialGradient id="h2" cx="52%" cy="32%" r="74%">
      <stop offset="0" stop-color="#A855F7" stop-opacity="0.55"/>
      <stop offset="1" stop-color="#05060A" stop-opacity="0"/>
    </radialGradient>
    <filter id="hb" x="-20%" y="-20%" width="140%" height="140%">
      <feGaussianBlur stdDeviation="24"/>
    </filter>
  </defs>
  <rect width="1600" height="1000" fill="#05060A"/>
  <rect width="1600" height="1000" fill="url(#h2)"/>
  <g filter="url(#hb)" opacity="0.8">
    <path d="M260 760C420 640 520 820 700 700C880 580 980 740 1160 620C1340 500 1440 560 1520 460" stroke="url(#h1)" stroke-width="40" stroke-linecap="round"/>
  </g>
  <g opacity="0.92">
    <rect x="260" y="220" width="1080" height="560" rx="48" fill="white" fill-opacity="0.05" stroke="white" stroke-opacity="0.10"/>
    <rect x="320" y="290" width="460" height="70" rx="24" fill="white" fill-opacity="0.06" stroke="white" stroke-opacity="0.10"/>
    <rect x="320" y="386" width="860" height="16" rx="8" fill="white" fill-opacity="0.12"/>
    <rect x="320" y="424" width="740" height="12" rx="6" fill="white" fill-opacity="0.10"/>
    <rect x="320" y="468" width="860" height="250" rx="36" fill="url(#h1)" fill-opacity="0.10" stroke="white" stroke-opacity="0.10"/>
    <g stroke="white" stroke-opacity="0.14">
      <path d="M380 560C470 520 520 600 620 560C720 520 760 600 860 560C960 520 1010 600 1110 560" stroke-width="4" stroke-linecap="round"/>
      <path d="M380 630C470 590 520 670 620 630C720 590 760 670 860 630C960 590 1010 670 1110 630" stroke-width="4" stroke-linecap="round"/>
    </g>
  </g>
</svg>

