<svg width="1600" height="1000" viewBox="0 0 1600 1000" fill="none" xmlns="http://www.w3.org/2000/svg">
  <defs>
    <linearGradient id="n1" x1="0" y1="0" x2="1" y2="1">
      <stop offset="0" stop-color="#22D3EE" stop-opacity="0.75"/>
      <stop offset="0.55" stop-color="#60A5FA" stop-opacity="0.55"/>
      <stop offset="1" stop-color="#A855F7" stop-opacity="0.55"/>
    </linearGradient>
    <radialGradient id="n2" cx="40%" cy="30%" r="70%">
      <stop offset="0" stop-color="#22D3EE" stop-opacity="0.55"/>
      <stop offset="1" stop-color="#05060A" stop-opacity="0"/>
    </radialGradient>
    <filter id="nb" x="-20%" y="-20%" width="140%" height="140%">
      <feGaussianBlur stdDeviation="22"/>
    </filter>
  </defs>
  <rect width="1600" height="1000" fill="#05060A"/>
  <rect width="1600" height="1000" fill="url(#n2)"/>
  <g filter="url(#nb)" opacity="0.85">
    <circle cx="420" cy="360" r="110" fill="#22D3EE" fill-opacity="0.22"/>
    <circle cx="980" cy="500" r="150" fill="#A855F7" fill-opacity="0.18"/>
    <circle cx="1250" cy="320" r="120" fill="#60A5FA" fill-opacity="0.18"/>
  </g>
  <g opacity="0.9">
    <rect x="220" y="220" width="1160" height="560" rx="48" fill="white" fill-opacity="0.05" stroke="white" stroke-opacity="0.10"/>
    <g stroke="url(#n1)" stroke-opacity="0.55" stroke-width="2">
      <path d="M340 360C520 260 620 520 760 420C900 320 980 600 1160 460"/>
      <path d="M360 520C520 420 640 640 820 520C1000 400 1060 560 1260 420"/>
      <path d="M360 420C520 320 620 440 780 360C940 280 1060 420 1260 320"/>
    </g>
    <g fill="white" fill-opacity="0.08" stroke="white" stroke-opacity="0.14">
      <circle cx="340" cy="360" r="10"/>
      <circle cx="760" cy="420" r="10"/>
      <circle cx="1160" cy="460" r="10"/>
      <circle cx="360" cy="520" r="10"/>
      <circle cx="820" cy="520" r="10"/>
      <circle cx="1260" cy="420" r="10"/>
      <circle cx="360" cy="420" r="10"/>
      <circle cx="780" cy="360" r="10"/>
      <circle cx="1260" cy="320" r="10"/>
    </g>
    <rect x="300" y="620" width="1000" height="90" rx="30" fill="url(#n1)" fill-opacity="0.10" stroke="white" stroke-opacity="0.10"/>
  </g>
</svg>

