<svg width="1600" height="1000" viewBox="0 0 1600 1000" fill="none" xmlns="http://www.w3.org/2000/svg">
  <defs>
    <linearGradient id="p1" x1="0" y1="0" x2="1" y2="1">
      <stop offset="0" stop-color="#A855F7" stop-opacity="0.75"/>
      <stop offset="0.55" stop-color="#22D3EE" stop-opacity="0.55"/>
      <stop offset="1" stop-color="#05060A" stop-opacity="1"/>
    </linearGradient>
    <radialGradient id="p2" cx="58%" cy="32%" r="72%">
      <stop offset="0" stop-color="#A855F7" stop-opacity="0.55"/>
      <stop offset="1" stop-color="#05060A" stop-opacity="0"/>
    </radialGradient>
    <filter id="pb" x="-20%" y="-20%" width="140%" height="140%">
      <feGaussianBlur stdDeviation="26"/>
    </filter>
  </defs>
  <rect width="1600" height="1000" fill="#05060A"/>
  <rect width="1600" height="1000" fill="url(#p2)"/>
  <g filter="url(#pb)">
    <path d="M220 600C360 520 480 700 620 620C760 540 820 340 980 420C1140 500 1240 420 1400 340" stroke="url(#p1)" stroke-width="34" stroke-linecap="round"/>
  </g>
  <g opacity="0.92">
    <rect x="320" y="160" width="520" height="760" rx="72" fill="white" fill-opacity="0.05" stroke="white" stroke-opacity="0.10"/>
    <rect x="370" y="250" width="420" height="580" rx="46" fill="url(#p1)" fill-opacity="0.12" stroke="white" stroke-opacity="0.10"/>
    <rect x="420" y="310" width="260" height="18" rx="9" fill="#22D3EE" fill-opacity="0.55"/>
    <rect x="420" y="360" width="320" height="180" rx="24" fill="white" fill-opacity="0.06" stroke="white" stroke-opacity="0.10"/>
    <rect x="420" y="560" width="320" height="84" rx="24" fill="white" fill-opacity="0.06" stroke="white" stroke-opacity="0.10"/>
    <rect x="420" y="660" width="320" height="84" rx="24" fill="white" fill-opacity="0.06" stroke="white" stroke-opacity="0.10"/>
  </g>
</svg>

